Coordinates
version=1
nRows=19
nColumns=24
inDegrees=yes

Units are S.I. units (second, meters, Newtons, ...)
Angles are in degrees.

endheader
time	pelvis_tilt	pelvis_list	pelvis_rotation	pelvis_tx	pelvis_ty	pelvis_tz	hip_flexion_r	hip_adduction_r	hip_rotation_r	knee_angle_r	ankle_angle_r	subtalar_angle_r	mtp_angle_r	hip_flexion_l	hip_adduction_l	hip_rotation_l	knee_angle_l	ankle_angle_l	subtalar_angle_l	mtp_angle_l	lumbar_extension	lumbar_bending	lumbar_rotation
      1.61300000	     -2.06798998	      6.71563117	     -0.33970573	      0.42349987	      0.99047059	      0.30341271	     19.76465698	     -8.75513907	      1.61401984	    -66.89378032	      3.09234637	    -12.42617006	      0.97347151	     10.13929754	     12.76655208	      0.85586719	    -12.02049841	      2.79591287	    -14.54258794	     -1.34991100	      2.20727711	     -5.16527710	      4.00510356
      1.61716667	     -2.00709721	      6.63175859	     -0.17246079	      0.42804985	      0.99102117	      0.30299125	     20.27219576	     -8.66692245	      1.56280004	    -66.53948334	      3.62332355	    -12.54596687	      0.92475875	      9.61803379	     12.72393792	      1.09155279	    -11.76346982	      2.87145291	    -14.49008633	     -1.37315584	      2.08706650	     -5.07373744	      3.89140913
      1.62133333	     -1.89738463	      6.55928607	     -0.01688840	      0.43263119	      0.99161699	      0.30257590	     20.71138420	     -8.59773345	      1.50960226	    -66.13684205	      4.12666730	    -12.65357656	      0.86744208	      9.02914917	     12.68960466	      1.32306790	    -11.47669344	      2.94331112	    -14.45751266	     -1.40113141	      1.92042773	     -5.00015150	      3.71259088
      1.62550000	     -1.77034626	      6.49671881	      0.13337039	      0.43722031	      0.99221595	      0.30216610	     21.11745986	     -8.53658943	      1.46785842	    -65.68403603	      4.56609099	    -12.71029486	      0.76504982	      8.40871365	     12.66274279	      1.56716689	    -11.16159032	      3.01317365	    -14.46182523	     -1.45093754	      1.74218513	     -4.93316560	      3.43909064
      1.62966667	     -1.68345188	      6.42902431	      0.30760328	      0.44177911	      0.99273247	      0.30174442	     21.55276228	     -8.47585292	      1.40429773	    -65.19522695	      5.00167386	    -12.71236892	      0.60214388	      7.84605572	     12.62619661	      1.82184198	    -10.87449242	      3.05463499	    -14.43362750	     -1.53117402	      1.60248577	     -4.86419123	      3.20265482
      1.63383333	     -1.62719503	      6.35319994	      0.47288496	      0.44630426	      0.99316631	      0.30134425	     22.01954867	     -8.39936174	      1.35561800	    -64.68033232	      5.44720392	    -12.74599753	      0.56229669	      7.34590889	     12.57105393	      2.01571028	    -10.64235793	      3.18362650	    -14.33669017	     -1.54960310	      1.50100073	     -4.77377583	      3.12180985
      1.63800000	     -1.50088952	      6.29944914	      0.62197020	      0.45085029	      0.99367020	      0.30097034	     22.39428582	     -8.34454127	      1.31993660	    -64.11844836	      5.84176825	    -12.70344355	      0.45944139	      6.74466255	     12.53487894	      2.22278282	    -10.35532949	      3.29001062	    -14.25999142	     -1.59864606	      1.30807203	     -4.71858439	      2.85635637
      1.64216667	     -1.42123335	      6.24317367	      0.78308717	      0.45536556	      0.99406800	      0.30058778	     22.81214198	     -8.28971760	      1.27794609	    -63.53019566	      6.22627645	    -12.66105518	      0.37140996	      6.21288827	     12.49271736	      2.42459895	    -10.10505813	      3.40827858	    -14.17249138	     -1.63978430	      1.17302295	     -4.66090248	      2.67224821
      1.64633333	     -1.36939469	      6.17425528	      0.95929191	      0.45986525	      0.99442578	      0.30021392	     23.23961793	     -8.22113355	      1.22262997	    -62.89537162	      6.57859672	    -12.62830383	      0.32711151	      5.72438418	     12.43172023	      2.62192547	     -9.88041669	      3.51792585	    -14.05968787	     -1.65940010	      1.07433205	     -4.59331607	      2.55654202
      1.65050000	     -1.25110444	      6.13297590	      1.10612207	      0.46438600	      0.99483549	      0.29984806	     23.58830807	     -8.18312876	      1.18572359	    -62.22951193	      6.88708378	    -12.52801226	      0.23487080	      5.14054338	     12.39566626	      2.80641079	     -9.60239725	      3.64023641	    -13.96013570	     -1.70019355	      0.89266995	     -4.54388824	      2.29710589
      1.65466667	     -1.23091074	      6.07594620	      1.27605743	      0.46885751	      0.99506999	      0.29947450	     24.03666306	     -8.12981595	      1.13454748	    -61.54454488	      7.17056702	    -12.48520479	      0.19803589	      4.69229368	     12.34207068	      2.99117432	     -9.38039260	      3.76356233	    -13.84578100	     -1.71388325	      0.82300467	     -4.47181755	      2.19731745
      1.65883333	     -1.12964838	      6.03386919	      1.43875223	      0.47334822	      0.99541155	      0.29912590	     24.36940051	     -8.08936050	      1.09096709	    -60.80527891	      7.45208196	    -12.39075958	      0.14524179	      4.15023615	     12.29745647	      3.17421245	     -9.14863776	      3.89295575	    -13.73276104	     -1.73382615	      0.66751786	     -4.44073162	      2.00104231
      1.66300000	     -1.05967877	      5.99053267	      1.59625011	      0.47782862	      0.99567504	      0.29878321	     24.73062821	     -8.04844187	      1.04546675	    -60.04315165	      7.67274338	    -12.29905455	      0.08898265	      3.64229011	     12.24902161	      3.35067114	     -8.91223557	      4.02040878	    -13.62358717	     -1.75328554	      0.54309533	     -4.39418799	      1.80946582
      1.66716667	     -1.00925337	      5.95749417	      1.74930040	      0.48229179	      0.99587340	      0.29843757	     25.10586800	     -8.01838288	      1.00769834	    -59.26022461	      7.86805066	    -12.21670806	      0.03486198	      3.16172998	     12.21048945	      3.52308851	     -8.68456280	      4.14815610	    -13.51864312	     -1.77006049	      0.43968825	     -4.35584336	      1.63724753
      1.67133333	     -0.95291168	      5.92852468	      1.90049102	      0.48675128	      0.99606150	      0.29810740	     25.45983196	     -7.99214240	      0.96774874	    -58.44476684	      8.03239502	    -12.13692280	     -0.02610661	      2.67496225	     12.17242122	      3.69053402	     -8.45414716	      4.27586193	    -13.41667871	     -1.78770762	      0.32915566	     -4.32708090	      1.44947262
      1.67550000	     -0.90726011	      5.89943756	      2.04907942	      0.49119821	      0.99619678	      0.29778100	     25.81472040	     -7.96444619	      0.92802300	    -57.60706192	      8.17084664	    -12.07672970	     -0.08135355	      2.20567631	     12.13258697	      3.85711288	     -8.23369520	      4.40510575	    -13.31619790	     -1.80148941	      0.23036783	     -4.29218033	      1.29147283
      1.67966667	     -0.85124107	      5.87239752	      2.19303244	      0.49564693	      0.99634222	      0.29746507	     26.14064017	     -7.93900516	      0.88500369	    -56.73571002	      8.27926854	    -12.02507874	     -0.13790243	      1.72290702	     12.09159301	      4.02271616	     -8.00705238	      4.53000925	    -13.21837359	     -1.81429941	      0.11966314	     -4.25967486	      1.12676616
      1.68383333	     -0.81748129	      5.85213301	      2.33539950	      0.50008164	      0.99641265	      0.29714971	     26.48370464	     -7.92138014	      0.84288419	    -55.84945849	      8.36824764	    -11.98226158	     -0.19450705	      1.26934089	     12.05734615	      4.18768338	     -7.78821960	      4.65660823	    -13.13076777	     -1.82595687	      0.02973539	     -4.23989099	      0.96773184
      1.68800000	     -0.79326959	      5.83515450	      2.47401521	      0.50450571	      0.99645452	      0.29684685	     26.82258133	     -7.90438336	      0.80564263	    -54.93565938	      8.43022333	    -11.95633169	     -0.25105580	      0.83071480	     12.02510074	      4.35161729	     -7.57669789	      4.77907359	    -13.05020172	     -1.83657091	     -0.04258785	     -4.21918183	      0.81387448
